<mxfile host="65bd71144e">
    <diagram id="fluxo_codigo" name="Fluxo do Código">
        <mxGraphModel dx="50550" dy="42738" grid="1" gridSize="10" guides="1" tooltips="1" connect="1" arrows="1" fold="1" page="1" pageScale="1" pageWidth="850" pageHeight="1100" math="0" shadow="0">
            <root>
                <mxCell id="0"/>
                <mxCell id="1" parent="0"/>
                <mxCell id="start_to_verificar_modulos" parent="1" edge="1"/>
                <mxCell id="verificar_modulos_to_formatar_datas" parent="1" edge="1"/>
                <mxCell id="formatar_datas_to_verificar_alerta" parent="1" edge="1"/>
                <mxCell id="verificar_alerta_to_iniciar_alerta" parent="1" edge="1"/>
                <mxCell id="verificar_alerta_to_menu" parent="1" edge="1"/>
                <mxCell id="iniciar_alerta_to_menu" parent="1" edge="1"/>
                <mxCell id="menu_to_escolha" parent="1" edge="1"/>
                <mxCell id="escolha_to_acessar_odette" parent="1" edge="1"/>
                <mxCell id="escolha_to_abrir_config" parent="1" edge="1"/>
                <mxCell id="escolha_to_sair" parent="1" edge="1"/>
                <mxCell id="2" value="&lt;font style=&quot;font-size: 24px;&quot;&gt;&lt;b&gt;Arquitetura JBS Work Flow v3.1&lt;/b&gt;&lt;/font&gt;" style="text;html=1;strokeColor=none;fillColor=none;align=center;verticalAlign=middle;whiteSpace=wrap;rounded=0;" vertex="1" parent="1">
                    <mxGeometry x="-5910" y="-3460" width="370" height="30" as="geometry"/>
                </mxCell>
                <mxCell id="3" value="&lt;div style=&quot;text-align: left;&quot;&gt;&lt;font style=&quot;font-size: 12px;&quot;&gt;Acelerador de fluxo de trabalho para atividades escolares com notificações automáticas&lt;/font&gt;&lt;/div&gt;" style="text;html=1;strokeColor=none;fillColor=none;align=center;verticalAlign=middle;whiteSpace=wrap;rounded=0;" vertex="1" parent="1">
                    <mxGeometry x="-5920" y="-3430" width="390" height="20" as="geometry"/>
                </mxCell>
                <mxCell id="4" value="JBS Work Flow" style="rounded=0;whiteSpace=wrap;html=1;fillColor=#f5f5f5;strokeColor=#666666;fontColor=#333333;verticalAlign=top;fontStyle=1;fontSize=14;" vertex="1" parent="1">
                    <mxGeometry x="-6270" y="-3390" width="1090" height="700" as="geometry"/>
                </mxCell>
                <mxCell id="5" value="Núcleo do Sistema" style="rounded=1;whiteSpace=wrap;html=1;fillColor=#dae8fc;strokeColor=#6c8ebf;verticalAlign=top;fontStyle=1" vertex="1" parent="1">
                    <mxGeometry x="-6240" y="-3350" width="300" height="320" as="geometry"/>
                </mxCell>
                <mxCell id="6" value="&lt;b&gt;index.py&lt;/b&gt;&lt;br&gt;Ponto de entrada principal&lt;br&gt;- Gerencia fluxo assíncrono&lt;br&gt;- Menu interativo" style="rounded=1;whiteSpace=wrap;html=1;fillColor=#d5e8d4;strokeColor=#82b366;" vertex="1" parent="1">
                    <mxGeometry x="-6210" y="-3310" width="240" height="70" as="geometry"/>
                </mxCell>
                <mxCell id="7" value="&lt;b&gt;data.py&lt;/b&gt;&lt;br&gt;Armazenamento de dados&lt;br&gt;- Configurações do sistema&lt;br&gt;- Horários para notificações&lt;br&gt;- Informações do SO" style="rounded=1;whiteSpace=wrap;html=1;fillColor=#d5e8d4;strokeColor=#82b366;" vertex="1" parent="1">
                    <mxGeometry x="-6210" y="-3230" width="240" height="80" as="geometry"/>
                </mxCell>
                <mxCell id="8" value="&lt;b&gt;tool.py&lt;/b&gt;&lt;br&gt;Ferramentas e utilitários&lt;br&gt;- Funções para notificações&lt;br&gt;- Gerenciamento de processos&lt;br&gt;- UI e formatação de dados" style="rounded=1;whiteSpace=wrap;html=1;fillColor=#d5e8d4;strokeColor=#82b366;" vertex="1" parent="1">
                    <mxGeometry x="-6210" y="-3140" width="240" height="90" as="geometry"/>
                </mxCell>
                <mxCell id="9" value="Sistema de Notificações" style="rounded=1;whiteSpace=wrap;html=1;fillColor=#fff2cc;strokeColor=#d6b656;verticalAlign=top;fontStyle=1" vertex="1" parent="1">
                    <mxGeometry x="-6240" y="-3010" width="300" height="160" as="geometry"/>
                </mxCell>
                <mxCell id="10" value="&lt;b&gt;alert.py&lt;/b&gt;&lt;br&gt;Processo em segundo plano&lt;br&gt;- Monitoramento contínuo de horários&lt;br&gt;- Dispara notificações automáticas" style="rounded=1;whiteSpace=wrap;html=1;fillColor=#ffe6cc;strokeColor=#d79b00;" vertex="1" parent="1">
                    <mxGeometry x="-6210" y="-2970" width="240" height="80" as="geometry"/>
                </mxCell>
                <mxCell id="11" value="&lt;b&gt;winotify&lt;/b&gt;&lt;br&gt;Biblioteca de notificações do sistema" style="rounded=1;whiteSpace=wrap;html=1;fillColor=#f8cecc;strokeColor=#b85450;dashed=1;" vertex="1" parent="1">
                    <mxGeometry x="-6180" y="-2880" width="180" height="40" as="geometry"/>
                </mxCell>
                <mxCell id="12" value="Módulo ToDo" style="rounded=1;whiteSpace=wrap;html=1;fillColor=#e1d5e7;strokeColor=#9673a6;verticalAlign=top;fontStyle=1" vertex="1" parent="1">
                    <mxGeometry x="-5910" y="-3350" width="370" height="250" as="geometry"/>
                </mxCell>
                <mxCell id="13" value="&lt;b&gt;to_do_main.py&lt;/b&gt;&lt;br&gt;Interface principal do módulo&lt;br&gt;- Menu de tarefas&lt;br&gt;- Gerenciamento de opções" style="rounded=1;whiteSpace=wrap;html=1;fillColor=#d5e8d4;strokeColor=#82b366;" vertex="1" parent="1">
                    <mxGeometry x="-5890" y="-3310" width="160" height="80" as="geometry"/>
                </mxCell>
                <mxCell id="14" value="&lt;b&gt;to_do_tool.py&lt;/b&gt;&lt;br&gt;Funções de gerenciamento&lt;br&gt;- Adicionar tarefas&lt;br&gt;- Remover tarefas&lt;br&gt;- Temporizador para notificações" style="rounded=1;whiteSpace=wrap;html=1;fillColor=#d5e8d4;strokeColor=#82b366;" vertex="1" parent="1">
                    <mxGeometry x="-5720" y="-3310" width="160" height="90" as="geometry"/>
                </mxCell>
                <mxCell id="15" value="&lt;b&gt;to_do_class.py&lt;/b&gt;&lt;br&gt;Estrutura de dados para tarefas" style="rounded=1;whiteSpace=wrap;html=1;fillColor=#d5e8d4;strokeColor=#82b366;" vertex="1" parent="1">
                    <mxGeometry x="-5890" y="-3210" width="330" height="60" as="geometry"/>
                </mxCell>
                <mxCell id="16" value="Módulo IA (Experimental)" style="rounded=1;whiteSpace=wrap;html=1;fillColor=#f8cecc;strokeColor=#b85450;verticalAlign=top;fontStyle=1" vertex="1" parent="1">
                    <mxGeometry x="-5910" y="-3080" width="370" height="230" as="geometry"/>
                </mxCell>
                <mxCell id="17" value="&lt;b&gt;index_IA.py&lt;/b&gt;&lt;br&gt;Interface principal do módulo IA&lt;br&gt;- Menu e configurações" style="rounded=1;whiteSpace=wrap;html=1;fillColor=#d5e8d4;strokeColor=#82b366;" vertex="1" parent="1">
                    <mxGeometry x="-5890" y="-3040" width="160" height="70" as="geometry"/>
                </mxCell>
                <mxCell id="18" value="&lt;b&gt;tool_IA.py&lt;/b&gt;&lt;br&gt;Funções de suporte à IA&lt;br&gt;- Instalação do Ollama&lt;br&gt;- Execução de modelos" style="rounded=1;whiteSpace=wrap;html=1;fillColor=#d5e8d4;strokeColor=#82b366;" vertex="1" parent="1">
                    <mxGeometry x="-5720" y="-3040" width="160" height="70" as="geometry"/>
                </mxCell>
                <mxCell id="19" value="&lt;b&gt;data_IA.py&lt;/b&gt;&lt;br&gt;Configurações da IA&lt;br&gt;- Modelo e parâmetros" style="rounded=1;whiteSpace=wrap;html=1;fillColor=#d5e8d4;strokeColor=#82b366;" vertex="1" parent="1">
                    <mxGeometry x="-5890" y="-2960" width="330" height="60" as="geometry"/>
                </mxCell>
                <mxCell id="20" value="&lt;b&gt;Ollama (Dependência Externa)&lt;/b&gt;&lt;br&gt;Motor de IA local" style="rounded=1;whiteSpace=wrap;html=1;fillColor=#f8cecc;strokeColor=#b85450;dashed=1;" vertex="1" parent="1">
                    <mxGeometry x="-5890" y="-2890" width="330" height="50" as="geometry"/>
                </mxCell>
                <mxCell id="21" value="Fluxo de Dados e Interações" style="rounded=1;whiteSpace=wrap;html=1;fillColor=#f5f5f5;strokeColor=#666666;fontColor=#333333;verticalAlign=top;fontStyle=1" vertex="1" parent="1">
                    <mxGeometry x="-5510" y="-3350" width="300" height="500" as="geometry"/>
                </mxCell>
                <mxCell id="22" value="Usuário" style="shape=umlActor;verticalLabelPosition=bottom;verticalAlign=top;html=1;" vertex="1" parent="1">
                    <mxGeometry x="-5375" y="-3300" width="30" height="60" as="geometry"/>
                </mxCell>
                <mxCell id="23" value="&lt;b&gt;Interface de Menu&lt;/b&gt;&lt;br&gt;(Terminal)" style="rounded=1;whiteSpace=wrap;html=1;fillColor=#d5e8d4;strokeColor=#82b366;" vertex="1" parent="1">
                    <mxGeometry x="-5430" y="-3210" width="140" height="60" as="geometry"/>
                </mxCell>
                <mxCell id="24" value="&lt;b&gt;Processo de Notificação&lt;/b&gt;&lt;br&gt;(Background)" style="rounded=1;whiteSpace=wrap;html=1;fillColor=#ffe6cc;strokeColor=#d79b00;" vertex="1" parent="1">
                    <mxGeometry x="-5430" y="-3130" width="140" height="60" as="geometry"/>
                </mxCell>
                <mxCell id="25" value="&lt;b&gt;Sistema Operacional&lt;/b&gt;&lt;br&gt;Windows/Linux" style="rounded=1;whiteSpace=wrap;html=1;fillColor=#f8cecc;strokeColor=#b85450;dashed=1;" vertex="1" parent="1">
                    <mxGeometry x="-5430" y="-3050" width="140" height="60" as="geometry"/>
                </mxCell>
                <mxCell id="26" value="&lt;b&gt;Odette&lt;/b&gt;&lt;br&gt;Sistema de Avaliação&lt;br&gt;(Site Externo)" style="cloud;whiteSpace=wrap;html=1;fillColor=#dae8fc;strokeColor=#6c8ebf;" vertex="1" parent="1">
                    <mxGeometry x="-5440" y="-2970" width="160" height="80" as="geometry"/>
                </mxCell>
                <mxCell id="27" value="Legenda" style="rounded=1;whiteSpace=wrap;html=1;fillColor=#f5f5f5;strokeColor=#666666;fontColor=#333333;verticalAlign=top;fontStyle=1;fontSize=12;" vertex="1" parent="1">
                    <mxGeometry x="-6240" y="-2830" width="700" height="120" as="geometry"/>
                </mxCell>
                <mxCell id="28" value="" style="rounded=1;whiteSpace=wrap;html=1;fillColor=#dae8fc;strokeColor=#6c8ebf;" vertex="1" parent="1">
                    <mxGeometry x="-6220" y="-2800" width="30" height="20" as="geometry"/>
                </mxCell>
                <mxCell id="29" value="Módulo Principal" style="text;html=1;strokeColor=none;fillColor=none;align=left;verticalAlign=middle;whiteSpace=wrap;rounded=0;" vertex="1" parent="1">
                    <mxGeometry x="-6180" y="-2800" width="120" height="20" as="geometry"/>
                </mxCell>
                <mxCell id="30" value="" style="rounded=1;whiteSpace=wrap;html=1;fillColor=#fff2cc;strokeColor=#d6b656;" vertex="1" parent="1">
                    <mxGeometry x="-6220" y="-2770" width="30" height="20" as="geometry"/>
                </mxCell>
                <mxCell id="31" value="Sistema de Notificações" style="text;html=1;strokeColor=none;fillColor=none;align=left;verticalAlign=middle;whiteSpace=wrap;rounded=0;" vertex="1" parent="1">
                    <mxGeometry x="-6180" y="-2770" width="140" height="20" as="geometry"/>
                </mxCell>
                <mxCell id="32" value="" style="rounded=1;whiteSpace=wrap;html=1;fillColor=#e1d5e7;strokeColor=#9673a6;" vertex="1" parent="1">
                    <mxGeometry x="-6220" y="-2740" width="30" height="20" as="geometry"/>
                </mxCell>
                <mxCell id="33" value="Módulo ToDo" style="text;html=1;strokeColor=none;fillColor=none;align=left;verticalAlign=middle;whiteSpace=wrap;rounded=0;" vertex="1" parent="1">
                    <mxGeometry x="-6180" y="-2740" width="140" height="20" as="geometry"/>
                </mxCell>
                <mxCell id="34" value="" style="rounded=1;whiteSpace=wrap;html=1;fillColor=#d5e8d4;strokeColor=#82b366;" vertex="1" parent="1">
                    <mxGeometry x="-6020" y="-2800" width="30" height="20" as="geometry"/>
                </mxCell>
                <mxCell id="35" value="Arquivo Python" style="text;html=1;strokeColor=none;fillColor=none;align=left;verticalAlign=middle;whiteSpace=wrap;rounded=0;" vertex="1" parent="1">
                    <mxGeometry x="-5980" y="-2800" width="120" height="20" as="geometry"/>
                </mxCell>
                <mxCell id="36" value="" style="rounded=1;whiteSpace=wrap;html=1;fillColor=#ffe6cc;strokeColor=#d79b00;" vertex="1" parent="1">
                    <mxGeometry x="-6020" y="-2770" width="30" height="20" as="geometry"/>
                </mxCell>
                <mxCell id="37" value="Processo em Segundo Plano" style="text;html=1;strokeColor=none;fillColor=none;align=left;verticalAlign=middle;whiteSpace=wrap;rounded=0;" vertex="1" parent="1">
                    <mxGeometry x="-5980" y="-2770" width="160" height="20" as="geometry"/>
                </mxCell>
                <mxCell id="38" value="" style="rounded=1;whiteSpace=wrap;html=1;fillColor=#f8cecc;strokeColor=#b85450;dashed=1;" vertex="1" parent="1">
                    <mxGeometry x="-6020" y="-2740" width="30" height="20" as="geometry"/>
                </mxCell>
                <mxCell id="39" value="Dependência Externa" style="text;html=1;strokeColor=none;fillColor=none;align=left;verticalAlign=middle;whiteSpace=wrap;rounded=0;" vertex="1" parent="1">
                    <mxGeometry x="-5980" y="-2740" width="140" height="20" as="geometry"/>
                </mxCell>
                <mxCell id="40" value="" style="rounded=1;whiteSpace=wrap;html=1;fillColor=#f8cecc;strokeColor=#b85450;" vertex="1" parent="1">
                    <mxGeometry x="-5820" y="-2800" width="30" height="20" as="geometry"/>
                </mxCell>
                <mxCell id="41" value="Módulo IA (Experimental)" style="text;html=1;strokeColor=none;fillColor=none;align=left;verticalAlign=middle;whiteSpace=wrap;rounded=0;" vertex="1" parent="1">
                    <mxGeometry x="-5780" y="-2800" width="160" height="20" as="geometry"/>
                </mxCell>
                <mxCell id="42" value="" style="cloud;whiteSpace=wrap;html=1;fillColor=#dae8fc;strokeColor=#6c8ebf;" vertex="1" parent="1">
                    <mxGeometry x="-5820" y="-2770" width="30" height="20" as="geometry"/>
                </mxCell>
                <mxCell id="43" value="Serviço Externo" style="text;html=1;strokeColor=none;fillColor=none;align=left;verticalAlign=middle;whiteSpace=wrap;rounded=0;" vertex="1" parent="1">
                    <mxGeometry x="-5780" y="-2770" width="140" height="20" as="geometry"/>
                </mxCell>
                <mxCell id="44" value="Escalabilidade do Sistema" style="rounded=1;whiteSpace=wrap;html=1;fillColor=#f5f5f5;strokeColor=#666666;fontColor=#333333;verticalAlign=top;fontStyle=1;fontSize=12;" vertex="1" parent="1">
                    <mxGeometry x="-5510" y="-2830" width="300" height="120" as="geometry"/>
                </mxCell>
                <mxCell id="45" value="• Arquitetura modular permite adicionar novos módulos&lt;br&gt;• Processo de alertas em background funciona independente&lt;br&gt;• Integração com serviços externos via API&lt;br&gt;• Permite extensão para múltiplos usuários&lt;br&gt;• Suporte multiplataforma (Windows/Linux)" style="text;html=1;strokeColor=none;fillColor=none;align=left;verticalAlign=middle;whiteSpace=wrap;rounded=0;" vertex="1" parent="1">
                    <mxGeometry x="-5500" y="-2800" width="280" height="80" as="geometry"/>
                </mxCell>
                <mxCell id="46" edge="1" parent="1" source="22" target="23">
                    <mxGeometry relative="1" as="geometry"/>
                </mxCell>
                <mxCell id="47" edge="1" parent="1" source="23" target="24">
                    <mxGeometry relative="1" as="geometry"/>
                </mxCell>
                <mxCell id="48" edge="1" parent="1" source="24" target="25">
                    <mxGeometry relative="1" as="geometry"/>
                </mxCell>
                <mxCell id="49" edge="1" parent="1" source="23" target="26">
                    <mxGeometry relative="1" as="geometry">
                        <Array as="points">
                            <mxPoint x="-5470" y="-3180"/>
                            <mxPoint x="-5470" y="-2930"/>
                        </Array>
                    </mxGeometry>
                </mxCell>
                <mxCell id="50" edge="1" parent="1" source="6" target="7">
                    <mxGeometry relative="1" as="geometry"/>
                </mxCell>
                <mxCell id="51" edge="1" parent="1" source="6" target="8">
                    <mxGeometry relative="1" as="geometry">
                        <Array as="points">
                            <mxPoint x="-6250" y="-3275"/>
                            <mxPoint x="-6250" y="-3095"/>
                        </Array>
                    </mxGeometry>
                </mxCell>
                <mxCell id="52" edge="1" parent="1" source="7" target="8">
                    <mxGeometry relative="1" as="geometry"/>
                </mxCell>
                <mxCell id="53" edge="1" parent="1" source="6" target="10">
                    <mxGeometry relative="1" as="geometry">
                        <Array as="points">
                            <mxPoint x="-6090" y="-3020"/>
                        </Array>
                    </mxGeometry>
                </mxCell>
                <mxCell id="54" edge="1" parent="1" source="10" target="11">
                    <mxGeometry relative="1" as="geometry"/>
                </mxCell>
                <mxCell id="55" edge="1" parent="1" source="6" target="13">
                    <mxGeometry relative="1" as="geometry">
                        <Array as="points">
                            <mxPoint x="-5930" y="-3275"/>
                            <mxPoint x="-5930" y="-3270"/>
                        </Array>
                    </mxGeometry>
                </mxCell>
                <mxCell id="56" edge="1" parent="1" source="13" target="14">
                    <mxGeometry relative="1" as="geometry"/>
                </mxCell>
                <mxCell id="57" edge="1" parent="1" source="14" target="15">
                    <mxGeometry relative="1" as="geometry"/>
                </mxCell>
                <mxCell id="58" edge="1" parent="1" source="6" target="17">
                    <mxGeometry relative="1" as="geometry">
                        <Array as="points">
                            <mxPoint x="-5930" y="-3275"/>
                            <mxPoint x="-5930" y="-3005"/>
                        </Array>
                    </mxGeometry>
                </mxCell>
                <mxCell id="59" edge="1" parent="1" source="17" target="18">
                    <mxGeometry relative="1" as="geometry"/>
                </mxCell>
                <mxCell id="60" edge="1" parent="1" source="18" target="19">
                    <mxGeometry relative="1" as="geometry">
                        <Array as="points">
                            <mxPoint x="-5640" y="-2960"/>
                        </Array>
                    </mxGeometry>
                </mxCell>
                <mxCell id="61" edge="1" parent="1" source="18" target="20">
                    <mxGeometry relative="1" as="geometry">
                        <Array as="points">
                            <mxPoint x="-5640" y="-2890"/>
                        </Array>
                    </mxGeometry>
                </mxCell>
                <mxCell id="62" value="&lt;b&gt;Versão:&lt;/b&gt; K2025_03_H1_10relise (v3.1)" style="text;html=1;strokeColor=none;fillColor=none;align=right;verticalAlign=middle;whiteSpace=wrap;rounded=0;" vertex="1" parent="1">
                    <mxGeometry x="-5420" y="-3430" width="230" height="20" as="geometry"/>
                </mxCell>
            </root>
        </mxGraphModel>
    </diagram>
</mxfile>